<svg width="3222" height="3608" viewBox="0 0 3222 3608" fill="none" xmlns="http://www.w3.org/2000/svg">
<path d="M733.668 1831V1024" stroke="white" stroke-width="200"/>
<path d="M1001.07 2021.5L1001.07 1194" stroke="white" stroke-width="200"/>
<path d="M2222.31 2021.5V1194" stroke="white" stroke-width="200"/>
<path d="M963.151 2099.5C1492.46 1680 1751.87 1678.5 2258.73 2098" stroke="white" stroke-width="200"/>
<path d="M776.767 1056.82L1610.66 627.95L2444.55 1056.82L1610.66 1447.57L776.767 1056.82Z" stroke="white" stroke-width="200"/>
<path d="M207.921 2671.6C191.121 2693.2 182.721 2719.6 182.721 2750.8C182.721 2781.2 190.321 2806.4 205.521 2826.4C220.721 2846.4 240.721 2863.2 265.521 2876.8C290.321 2889.6 317.521 2902.4 347.121 2915.2C376.721 2927.2 406.321 2940.8 435.921 2956C465.521 2970.4 492.721 2987.6 517.521 3007.6C542.321 3026.8 562.321 3052.8 577.521 3085.6C592.721 3117.6 600.321 3154.8 600.321 3197.2C600.321 3278 574.321 3339.2 522.321 3380.8C470.321 3422.4 399.121 3443.2 308.721 3443.2C218.321 3443.2 137.121 3417.6 65.1208 3366.4C67.5208 3313.6 81.9208 3267.6 108.321 3228.4C140.321 3266.8 179.121 3298.4 224.721 3323.2C270.321 3348 313.921 3360.4 355.521 3360.4C397.121 3360.4 432.721 3351.2 462.321 3332.8C482.321 3308.8 492.321 3277.2 492.321 3238C492.321 3198.8 481.921 3166.8 461.121 3142C441.121 3117.2 415.921 3098 385.521 3084.4C355.921 3070 323.121 3054.4 287.121 3037.6C251.921 3020 219.121 3002.4 188.721 2984.8C159.121 2967.2 133.921 2942 113.121 2909.2C93.1208 2876.4 83.1208 2838 83.1208 2794C83.1208 2720.4 107.921 2665.6 157.521 2629.6C207.921 2593.6 270.721 2575.6 345.921 2575.6C421.921 2575.6 499.521 2594 578.721 2630.8C569.921 2678 555.521 2722.8 535.521 2765.2C502.721 2732.4 464.721 2705.6 421.521 2684.8C379.121 2663.2 338.721 2652.4 300.321 2652.4C261.921 2652.4 231.121 2658.8 207.921 2671.6ZM921.349 3430H768.949V3415.6C782.549 3375.6 789.349 3312.4 789.349 3226V2725.6C789.349 2661.6 770.949 2612 734.149 2576.8V2562.4L898.549 2533.6L905.749 2545.6C903.349 2568.8 902.149 2602 902.149 2645.2V3067.6L1106.15 2897.2C1128.55 2878.8 1139.75 2864.4 1139.75 2854H1277.75V2868.4C1262.55 2870 1224.95 2894.8 1164.95 2942.8L994.549 3089.2L1144.55 3250C1199.75 3310.8 1239.35 3351.6 1263.35 3372.4C1287.35 3393.2 1310.55 3407.6 1332.95 3415.6V3430H1154.15C1154.15 3428.4 1070.15 3327.6 902.149 3127.6V3226C902.149 3314.8 908.549 3378 921.349 3415.6V3430ZM1616.93 3444.4C1532.93 3444.4 1466.53 3418 1417.73 3365.2C1368.93 3311.6 1344.53 3242 1344.53 3156.4C1344.53 3070 1372.93 2995.6 1429.73 2933.2C1486.53 2870.8 1557.73 2839.6 1643.33 2839.6C1729.73 2839.6 1796.13 2865.6 1842.53 2917.6C1889.73 2969.6 1913.33 3039.2 1913.33 3126.4C1913.33 3213.6 1884.93 3288.4 1828.13 3350.8C1771.33 3413.2 1700.93 3444.4 1616.93 3444.4ZM1786.13 3156.4C1786.13 3077.2 1773.73 3016 1748.93 2972.8C1724.13 2929.6 1680.13 2908 1616.93 2908C1576.13 2908 1544.13 2916.8 1520.93 2934.4C1506.53 2952.8 1494.53 2980.8 1484.93 3018.4C1476.13 3056 1471.73 3092 1471.73 3126.4C1471.73 3293.6 1530.93 3377.2 1649.33 3377.2C1686.13 3377.2 1716.13 3368.8 1739.33 3352C1754.53 3333.6 1766.13 3305.2 1774.13 3266.8C1782.13 3228.4 1786.13 3191.6 1786.13 3156.4ZM2215.16 3430H2060.36V3415.6C2073.96 3375.6 2080.76 3312.4 2080.76 3226V2725.6C2080.76 2661.6 2062.36 2612 2025.56 2576.8V2562.4L2189.96 2533.6L2197.16 2545.6C2194.76 2568.8 2193.56 2645.6 2193.56 2776L2194.76 3226C2194.76 3312.4 2201.56 3375.6 2215.16 3415.6V3430ZM2398.36 3263.2V3030.4C2398.36 2959.2 2378.36 2909.6 2338.36 2881.6V2867.2L2507.56 2838.4L2514.76 2850.4C2512.36 2873.6 2511.16 2906.8 2511.16 2950V3233.2C2511.16 3313.2 2521.16 3376 2541.16 3421.6V3430H2379.16V3421.6C2391.96 3384 2398.36 3331.2 2398.36 3263.2ZM2499.16 2580.4C2510.36 2590 2515.96 2613.2 2515.96 2650C2515.96 2658.8 2515.56 2666.8 2514.76 2674L2505.16 2682.4C2473.16 2691.2 2435.16 2697.6 2391.16 2701.6L2380.36 2696.8C2368.36 2676 2362.36 2648.4 2362.36 2614C2362.36 2610 2362.36 2606 2362.36 2602L2371.96 2593.6C2410.36 2580.8 2447.16 2574.4 2482.36 2574.4C2486.36 2574.4 2491.96 2576.4 2499.16 2580.4ZM2919.94 3443.2C2835.94 3443.2 2770.34 3417.2 2723.14 3365.2C2675.94 3313.2 2652.34 3244.8 2652.34 3160C2652.34 3074.4 2678.74 2999.6 2731.54 2935.6C2784.34 2871.6 2849.94 2839.6 2928.34 2839.6C3071.54 2839.6 3143.14 2928 3143.14 3104.8L3098.74 3148H2779.54C2779.54 3215.2 2793.94 3265.6 2822.74 3299.2C2851.54 3332.8 2890.34 3349.6 2939.14 3349.6C2958.34 3349.6 2985.54 3344 3020.74 3332.8C3055.94 3320.8 3087.14 3306.8 3114.34 3290.8L3144.34 3336.4C3129.14 3351.6 3095.94 3373.2 3044.74 3401.2C2994.34 3429.2 2952.74 3443.2 2919.94 3443.2ZM2906.74 2899.6C2873.14 2899.6 2847.14 2907.2 2828.74 2922.4C2813.54 2943.2 2801.54 2969.6 2792.74 3001.6C2783.94 3033.6 2779.54 3061.6 2779.54 3085.6L3025.54 3076C3025.54 2958.4 2985.94 2899.6 2906.74 2899.6Z" fill="white"/>
</svg>
